<svg version="1.0" xmlns="http://www.w3.org/2000/svg" width="710.000000pt" height="710.000000pt" viewBox="0 0 710.000000 710.000000" preserveAspectRatio="xMidYMid meet">
  <g transform="translate(0.000000,710.000000) scale(0.100000,-0.100000)" fill="#FFFFFF" stroke="none">
    <path d="M2883 3998 c-1 -1140 -5 -2186 -9 -2324 l-7 -252 24 -15 c13 -8 82 -51 153 -96 71 -45 130 -80 131 -79 2 2 6 947 9 2102 3 1154 7 2101 10 2103 6 6 70 -39 226 -161 63 -50 204 -159 313 -243 l198 -153 2 -645 c1 -355 2 -645 2 -645 -1 0 -64 47 -140 104 -77 57 -143 102 -147 99 -5 -2 -8 -744 -8 -1649 l0 -1644 158 0 159 0 -4 878 c-1 482 -5 1085 -7 1340 -1 254 0 462 3 462 13 0 90 -57 266 -195 99 -78 241 -187 316 -243 l136 -102 6 -167 c4 -91 7 -573 7 -1070 l0 -903 580 0 580 0 0 144 c0 79 3 152 7 161 6 16 -22 17 -425 10 l-432 -8 0 620 c0 341 -3 788 -7 995 l-6 374 -140 105 c-77 57 -194 149 -261 203 -67 55 -169 134 -227 177 l-106 78 -7 435 c-3 239 -3 613 0 831 l7 397 -29 24 c-16 13 -103 81 -194 151 -211 163 -485 379 -724 571 -149 120 -370 283 -406 300 -3 1 -7 -930 -7 -2070z"/>
    <path d="M2475 4651 c-3 -5 -74 -58 -158 -117 -202 -142 -458 -339 -680 -524 -4 -4 -7 -479 -6 -1056 0 -577 0 -1365 -1 -1752 l-1 -702 770 0 771 0 0 160 0 160 -608 0 -609 0 -6 512 c-4 281 -7 964 -7 1518 l0 1007 183 136 c100 74 227 170 282 214 l100 79 -7 179 c-3 99 -4 183 -2 187 3 4 1 8 -5 8 -5 0 -12 -4 -16 -9z"/>
  </g>
</svg>